<?xml version="1.0" encoding="UTF-8" standalone="no"?>
<svg
   xmlns:dc="http://purl.org/dc/elements/1.1/"
   xmlns:cc="http://creativecommons.org/ns#"
   xmlns:rdf="http://www.w3.org/1999/02/22-rdf-syntax-ns#"
   xmlns:svg="http://www.w3.org/2000/svg"
   xmlns="http://www.w3.org/2000/svg"
   xmlns:xlink="http://www.w3.org/1999/xlink"
   xmlns:sodipodi="http://sodipodi.sourceforge.net/DTD/sodipodi-0.dtd"
   xmlns:inkscape="http://www.inkscape.org/namespaces/inkscape"
   version="1.1"
   preserveAspectRatio="xMidYMid meet"
   viewBox="0 0 640 640"
   width="640"
   height="640"
   id="svg59"
   sodipodi:docname="resistor.svg"
   inkscape:version="1.0.2 (e86c870879, 2021-01-15, custom)">
  <metadata
     id="metadata63">
    <rdf:RDF>
      <cc:Work
         rdf:about="">
        <dc:format>image/svg+xml</dc:format>
        <dc:type
           rdf:resource="http://purl.org/dc/dcmitype/StillImage" />
      </cc:Work>
    </rdf:RDF>
  </metadata>
  <sodipodi:namedview
     pagecolor="#ffffff"
     bordercolor="#666666"
     borderopacity="1"
     objecttolerance="10"
     gridtolerance="10"
     guidetolerance="10"
     inkscape:pageopacity="0"
     inkscape:pageshadow="2"
     inkscape:window-width="1500"
     inkscape:window-height="938"
     id="namedview61"
     showgrid="false"
     inkscape:zoom="1.1136932"
     inkscape:cx="293.74773"
     inkscape:cy="290.59424"
     inkscape:window-x="-6"
     inkscape:window-y="-6"
     inkscape:window-maximized="1"
     inkscape:current-layer="g45"
     inkscape:document-rotation="0" />
  <defs
     id="defs15">
    <path
       d="M125.79 312.19C128.49 312.23 131.01 310.81 132.39 308.48C139.11 297.15 156.64 267.58 163.27 256.41C164.44 254.43 167.35 254.53 168.38 256.6C186.51 292.86 238.91 397.65 257.14 434.11C257.9 435.65 260.11 435.62 260.84 434.06C276.41 400.71 322.05 303.02 337.8 269.29C338.18 268.48 339.32 268.45 339.74 269.23C359 305 414.55 408.16 433.51 443.37C434.55 445.31 437.37 445.22 438.29 443.22C455.81 405.48 505.37 298.7 522.7 261.35C524.18 258.16 528.48 257.58 530.75 260.28C539.72 270.94 562.01 297.42 571.04 308.15C573.94 311.59 578.22 313.58 582.72 313.58C590.36 313.58 609.45 313.58 640 313.58L640 254.49C609.53 255.59 590.48 256.27 582.86 256.54C581.35 256.6 579.93 255.85 579.11 254.58C566.54 234.99 530.47 178.78 517.98 159.32C517.25 158.18 515.55 158.33 515.02 159.58C499.23 197.39 454.39 304.69 438.93 341.7C437.81 344.39 434.04 344.5 432.76 341.88C413.95 303.34 360.82 194.44 342.01 155.9C340.72 153.25 336.91 153.34 335.74 156.05C320.4 191.68 276.67 293.22 261.16 329.24C260.33 331.18 257.6 331.25 256.67 329.35C238.96 293.31 189.6 192.85 172.25 157.52C170.47 153.91 165.39 153.69 163.31 157.14C151.01 177.58 117.37 233.47 104.68 254.55C102.91 257.49 99.7 259.25 96.27 259.16C77.02 258.65 24.6 257.28 5.29 256.77C2.39 256.69 0 259.02 0 261.92C0 271.67 0 295.61 0 305.35C0 308.28 2.36 310.67 5.29 310.71C30.26 311.01 100.63 311.88 125.79 312.19Z"
       id="adox7Yvnn" />
    <linearGradient
       id="gradientacHk1xcsV"
       gradientUnits="userSpaceOnUse"
       x1="320"
       y1="153.97"
       x2="320"
       y2="444.77">
      <stop
         style="stop-color: #b4b4b4;stop-opacity: 1"
         offset="0%"
         id="stop3" />
      <stop
         style="stop-color: #010000;stop-opacity: 1"
         offset="100%"
         id="stop5" />
    </linearGradient>
    <linearGradient
       id="gradientbAfDlnIFn"
       gradientUnits="userSpaceOnUse"
       x1="320"
       y1="153.97"
       x2="320"
       y2="444.77">
      <stop
         style="stop-color:#2cff00;stop-opacity:1"
         offset="0%"
         id="stop8" />
      <stop
         style="stop-color:#fffa00;stop-opacity:1"
         offset="100%"
         id="stop10" />
    </linearGradient>
    <path
       d="M631.25 257.94C633.53 257.94 635.37 259.78 635.37 262.06C635.37 271.28 635.37 295.41 635.37 304.77C635.37 306.64 633.86 308.15 632 308.15C624.17 308.15 605.25 308.15 597.72 308.15C595.03 308.15 592.86 305.97 592.86 303.28C592.86 294.22 592.86 270.68 592.86 261.31C592.86 259.45 594.37 257.94 596.23 257.94C604.06 257.94 623.58 257.94 631.25 257.94Z"
       id="bSe7m6m9e" />
    <path
       d="M69.58 257.94C73.7 257.94 77.04 261.28 77.04 265.4C77.04 273.95 77.04 293.22 77.04 302.04C77.04 305.41 74.3 308.15 70.93 308.15C56.74 308.15 22.46 308.15 8.81 308.15C3.95 308.15 0 304.2 0 299.34C0 291.06 0 272.87 0 264.05C0 260.68 2.74 257.94 6.11 257.94C20.3 257.94 55.66 257.94 69.58 257.94Z"
       id="c4YKEoTiXA" />
  </defs>
  <g
     id="g57"
     transform="matrix(1.0079668,0,0,1,-2.6306964,20.125)">
    <g
       id="g55">
      <g
         id="g45">
        <g
           id="g35">
          <filter
             id="shadow13539350"
             x="-9"
             y="144.97"
             width="659"
             height="309.81"
             filterUnits="userSpaceOnUse"
             primitiveUnits="userSpaceOnUse">
            <feFlood
               id="feFlood17" />
            <feComposite
               in2="SourceAlpha"
               operator="in"
               id="feComposite19" />
            <feGaussianBlur
               stdDeviation="1"
               id="feGaussianBlur21" />
            <feOffset
               dx="1"
               dy="1"
               result="afterOffset"
               id="feOffset23" />
            <feFlood
               flood-color="#000000"
               flood-opacity="0.5"
               id="feFlood25" />
            <feComposite
               in2="afterOffset"
               operator="in"
               id="feComposite27" />
            <feMorphology
               operator="dilate"
               radius="1"
               id="feMorphology29" />
            <feComposite
               in2="SourceAlpha"
               operator="out"
               id="feComposite31" />
          </filter>
          <path
             d="m 125.79,312.19 c 2.7,0.04 5.22,-1.38 6.6,-3.71 6.72,-11.33 24.25,-40.9 30.88,-52.07 1.17,-1.98 4.08,-1.88 5.11,0.19 18.13,36.26 70.53,141.05 88.76,177.51 0.76,1.54 2.97,1.51 3.7,-0.05 15.57,-33.35 61.21,-131.04 76.96,-164.77 0.38,-0.81 1.52,-0.84 1.94,-0.06 19.26,35.77 74.81,138.93 93.77,174.14 1.04,1.94 3.86,1.85 4.78,-0.15 17.52,-37.74 67.08,-144.52 84.41,-181.87 1.48,-3.19 5.78,-3.77 8.05,-1.07 8.97,10.66 31.26,37.14 40.29,47.87 2.9,3.44 7.18,5.43 11.68,5.43 7.64,0 26.73,0 57.28,0 v -59.09 c -30.47,1.1 -49.52,1.78 -57.14,2.05 -1.51,0.06 -2.93,-0.69 -3.75,-1.96 -12.57,-19.59 -48.64,-75.8 -61.13,-95.26 -0.73,-1.14 -2.43,-0.99 -2.96,0.26 -15.79,37.81 -60.63,145.11 -76.09,182.12 -1.12,2.69 -4.89,2.8 -6.17,0.18 -18.81,-38.54 -71.94,-147.44 -90.75,-185.98 -1.29,-2.65 -5.1,-2.56 -6.27,0.15 -15.34,35.63 -59.07,137.17 -74.58,173.19 -0.83,1.94 -3.56,2.01 -4.49,0.11 -17.71,-36.04 -67.07,-136.5 -84.42,-171.83 -1.78,-3.61 -6.86,-3.83 -8.94,-0.38 -12.3,20.44 -45.94,76.33 -58.63,97.41 -1.77,2.94 -4.98,4.7 -8.41,4.61 C 77.02,258.65 24.6,257.28 5.29,256.77 2.39,256.69 0,259.02 0,261.92 c 0,9.75 0,33.69 0,43.43 0,2.93 2.36,5.32 5.29,5.36 24.97,0.3 95.34,1.17 120.5,1.48 z"
             id="cI0FEixMG"
             fill="#ffffff"
             fill-opacity="1"
             filter="url(#shadow13539350)" />
        </g>
        <use
           xlink:href="#adox7Yvnn"
           opacity="1"
           fill="url(#gradientacHk1xcsV)"
           id="use37"
           style="fill:url(#gradientacHk1xcsV)"
           x="0"
           y="0"
           width="100%"
           height="100%" />
        <use
           xlink:href="#adox7Yvnn"
           opacity="1"
           fill="url(#gradientbAfDlnIFn)"
           id="use39"
           style="fill:url(#gradientbAfDlnIFn)"
           x="0"
           y="0"
           width="100%"
           height="100%" />
        <g
           id="g43">
          <use
             xlink:href="#adox7Yvnn"
             opacity="1"
             fill-opacity="0"
             stroke="#000000"
             stroke-width="13"
             stroke-opacity="1"
             id="use41"
             x="0"
             y="0"
             width="100%"
             height="100%" />
        </g>
      </g>
      <g
         id="g49">
        <use
           xlink:href="#bSe7m6m9e"
           opacity="1"
           fill="#000000"
           fill-opacity="1"
           id="use47"
           x="0"
           y="0"
           width="100%"
           height="100%" />
      </g>
      <g
         id="g53">
        <use
           xlink:href="#c4YKEoTiXA"
           opacity="1"
           fill="#000000"
           fill-opacity="1"
           id="use51"
           x="0"
           y="0"
           width="100%"
           height="100%" />
      </g>
    </g>
  </g>
</svg>
